<svg width="94" height="84" viewBox="0 0 94 84" fill="none" xmlns="http://www.w3.org/2000/svg">
<g clip-path="url(#clip0_40464_62)">
<path d="M88.6165 51.3322C94.7437 31.3661 93.3395 13.2251 85.4802 10.8132C77.6208 8.40131 66.2824 22.6318 60.1551 42.5979C54.0279 62.564 55.4321 80.7049 63.2915 83.1168C71.1508 85.5288 82.4892 71.2983 88.6165 51.3322Z" fill="#303646"/>
<path d="M86.2754 50.6146C92.4027 30.6485 91.4595 12.649 84.1689 10.4117C76.8782 8.17428 66.0009 22.5463 59.8736 42.5124C53.7464 62.4784 54.6895 80.4779 61.9802 82.7153C69.2708 84.9527 80.1482 70.5807 86.2754 50.6146Z" fill="white"/>
<path d="M84.0745 49.9398C89.49 32.293 88.6566 16.3844 82.213 14.407C75.7694 12.4295 66.1557 25.1321 60.7402 42.7789C55.3247 60.4257 56.1581 76.3343 62.6018 78.3117C69.0454 80.2891 78.659 67.5866 84.0745 49.9398Z" fill="#CD2B31"/>
<path d="M81.3356 49.0952C85.7442 34.7297 85.0655 21.7792 79.8199 20.1694C74.5743 18.5596 66.748 28.9002 62.3395 43.2657C57.931 57.6312 58.6096 70.5817 63.8552 72.1915C69.1009 73.8013 76.9271 63.4608 81.3356 49.0952Z" fill="white"/>
<path d="M79.5574 47.7965C83.1436 36.1308 82.5972 25.6121 78.3371 24.3026C74.077 22.993 67.7164 31.3883 64.1303 43.0541C60.5441 54.7199 61.0904 65.2385 65.3505 66.5481C69.6106 67.8577 75.9713 59.4623 79.5574 47.7965Z" fill="#CD2B31"/>
<path d="M75.8268 47.4076C78.2214 39.6047 77.8525 32.5702 75.0028 31.6957C72.1531 30.8212 67.9017 36.4377 65.5071 44.2407C63.1126 52.0436 63.4815 59.078 66.3312 59.9525C69.1809 60.8271 73.4323 55.2105 75.8268 47.4076Z" fill="white"/>
<path d="M73.9795 46.0827C75.1892 42.1476 75.0045 38.5994 73.5669 38.1575C72.1294 37.7156 69.9834 40.5473 68.7738 44.4824C67.5641 48.4174 67.7488 51.9656 69.1864 52.4075C70.6239 52.8494 72.7699 50.0177 73.9795 46.0827Z" fill="#CD2B31"/>
<path d="M66.6614 40.5373C65.7974 41.6346 63.202 44.6001 63.2588 45.1018C63.3156 45.6036 66.6723 44.6024 66.8377 43.7416C67.003 42.8808 66.6614 40.5373 66.6614 40.5373Z" fill="#BAB3B4"/>
<path d="M4.88568 12.1408C5.20314 12.0163 9.07161 10.6239 9.94495 10.8174C10.5373 10.9826 11.0784 11.2945 11.5184 11.7242C9.01409 12.9811 7.46872 13.7546 6.32803 13.1154C5.73513 12.7807 5.28534 12.5622 5.03305 12.4154C4.78077 12.2685 4.73298 12.2032 4.88568 12.1408Z" fill="white"/>
<path opacity="0.09" d="M4.88573 12.1408C5.20319 12.0163 9.07166 10.6239 9.94501 10.8174C9.70074 11.3269 6.40576 13.0559 5.03311 12.4154C4.80354 12.2776 4.73304 12.2032 4.88573 12.1408Z" fill="#1F1F39"/>
<path d="M3.37743 11.2381C3.69012 11.1111 7.5634 9.72121 8.43198 9.91215C9.0369 10.0859 9.58707 10.4121 10.0297 10.8595C7.52542 12.1163 5.96126 12.8677 4.81612 12.2139C4.22576 11.8744 3.77713 11.6595 3.52485 11.5127C3.27256 11.3659 3.22362 11.2969 3.37743 11.2381Z" fill="white"/>
<path opacity="0.09" d="M3.37733 11.2381C3.69003 11.1111 7.5633 9.72121 8.43188 9.91215C8.18761 10.4216 6.37349 11.6243 3.52475 11.5127C3.28787 11.3771 3.22352 11.2969 3.37733 11.2381Z" fill="#1F1F39"/>
<path d="M1.66917 10.1645C2.3295 10.1226 2.97865 9.97363 3.59124 9.72357L3.6168 9.7158C4.91223 9.20993 6.28761 8.74364 6.72373 8.83855C7.37431 9.04952 7.96181 9.41979 8.43282 9.91569C5.92962 11.1762 4.25412 11.7977 3.10676 11.1366C2.5164 10.7972 2.06777 10.5823 1.81548 10.4354L1.73698 10.3874C1.56572 10.2838 1.53364 10.2177 1.66917 10.1645Z" fill="white"/>
<path opacity="0.09" d="M1.66917 10.1645C2.3295 10.1226 2.97865 9.97363 3.59124 9.72357L3.6168 9.7158C4.94337 9.22042 6.33892 8.76796 6.77504 8.86287C6.53077 9.37237 4.06492 10.4539 1.86424 10.4645L1.7381 10.3911C1.56573 10.2838 1.53364 10.2177 1.66917 10.1645Z" fill="#1F1F39"/>
<path d="M-0.0272685 9.11569C0.290195 8.99117 4.15866 7.59879 5.0309 7.78861C5.67245 7.99524 6.25369 8.35577 6.72382 8.83873C4.21951 10.0956 2.55657 10.7452 1.41509 10.0903C0.822185 9.75563 0.372391 9.53712 0.120106 9.39028C-0.132178 9.24343 -0.181074 9.17446 -0.0272685 9.11569Z" fill="white"/>
<path opacity="0.23" d="M-0.0272147 9.11563C0.290249 8.99111 4.15871 7.59872 5.03095 7.78855C4.78668 8.29805 1.99777 8.61941 0.12016 9.39021C-0.109406 9.25243 -0.181021 9.17439 -0.0272147 9.11563Z" fill="#1F1F39"/>
<path d="M3.87706 6.82991C3.97117 7.07873 4.13019 7.2978 4.33759 7.46438C5.54177 8.53541 65.3772 44.6889 65.5284 44.9104C65.5395 44.947 65.6072 44.9464 65.6887 44.9256C65.8023 44.8956 65.9104 44.8479 66.0091 44.7842C66.5099 44.4881 67.1234 43.8144 66.4541 43.2154C66.394 43.1606 66.3294 43.1108 66.2611 43.0666C66.2611 43.0666 6.71768 5.87796 5.54166 5.7526C4.60903 5.65302 3.64599 6.10967 3.87706 6.82991Z" fill="#543237"/>
<path d="M9.80573 4.02044C9.83667 4.35838 10.3511 8.43807 10.9164 9.12849C11.3326 9.58287 11.8568 9.92468 12.4405 10.1222C12.4297 7.33062 12.4263 5.58689 11.3299 4.87034C10.761 4.49642 10.3655 4.19354 10.1194 4.04082C9.87328 3.8881 9.78716 3.8544 9.80573 4.02044Z" fill="white"/>
<path opacity="0.09" d="M9.8056 4.02034C9.83653 4.35829 10.3509 8.43798 10.9163 9.1284C11.2614 8.68802 11.3082 4.95668 10.1159 4.02976C9.88554 3.87625 9.78703 3.85431 9.8056 4.02034Z" fill="#1F1F39"/>
<path d="M8.31436 3.08068C8.3453 3.41863 8.85964 7.49832 9.425 8.18874C9.85392 8.64832 10.3937 8.99003 10.9926 9.18116C10.9818 6.3896 10.9385 4.64603 9.83631 3.92329C9.2674 3.54936 8.87182 3.24648 8.62573 3.09376C8.37964 2.94104 8.29691 2.9183 8.31436 3.08068Z" fill="white"/>
<path opacity="0.09" d="M8.31418 3.08062C8.34512 3.41856 8.85946 7.49825 9.42483 8.18867C9.76998 7.7483 10.0159 5.57737 8.62333 3.08639C8.3952 2.94019 8.29673 2.91824 8.31418 3.08062Z" fill="#1F1F39"/>
<path d="M6.58213 2.04641C6.84588 2.65242 7.00842 3.2976 7.06328 3.95623C7.06328 3.95623 7.06884 3.9745 7.07218 3.98546C7.20847 5.36537 7.41451 6.80392 7.70013 7.15222C8.18258 7.6355 8.77782 7.99096 9.4321 8.18647C9.42136 5.39492 9.21362 3.60953 8.11139 2.88679C7.54138 2.50921 7.14584 2.20631 6.90452 2.05613L6.82603 2.00815C6.64158 1.90056 6.56912 1.89865 6.58213 2.04641Z" fill="white"/>
<path opacity="0.09" d="M6.58212 2.04632C6.84586 2.65234 7.0084 3.29751 7.06327 3.95615C7.06327 3.95615 7.06882 3.97442 7.07216 3.98538C7.23196 5.39008 7.46072 6.83769 7.74523 7.18234C8.09038 6.74197 7.93218 4.04318 6.94484 2.08371L6.82379 2.00076C6.64156 1.90048 6.56911 1.89856 6.58212 2.04632Z" fill="#1F1F39"/>
<path d="M4.87687 1.00812C4.90892 1.34973 5.4233 5.4294 5.99121 6.11505C6.4647 6.59573 7.04903 6.95269 7.69285 7.15453C7.6821 4.36298 7.49739 2.57459 6.40247 1.84962C5.83357 1.47569 5.43803 1.1728 5.19194 1.02008C4.94585 0.867357 4.86307 0.844633 4.87687 1.00812Z" fill="white"/>
<path opacity="0.23" d="M4.87686 1.00798C4.90891 1.34958 5.4233 5.42925 5.99121 6.11491C6.33636 5.67453 5.35483 3.03854 5.19082 1.01627C4.96158 0.866413 4.86306 0.844484 4.87686 1.00798Z" fill="#1F1F39"/>
<path opacity="0.47" d="M3.87695 6.82993C3.97105 7.07874 4.13008 7.29782 4.33748 7.4644C5.54166 8.53543 65.3771 44.689 65.5283 44.9105C65.5725 44.9769 65.7794 44.9219 66.009 44.7842C58.9999 40.2886 9.44089 10.0004 3.87695 6.82993Z" fill="#1F1F39"/>
<path d="M63.1091 45.3311C63.0475 46.0605 70.6475 47.4058 71.2419 46.9974L71.2675 46.9896C71.6737 46.5267 67.0491 40.4593 66.6649 40.5482C66.2807 40.6372 66.1035 42.7712 65.5563 43.7682L65.538 43.7737C64.9889 44.7512 63.1481 44.8161 63.1091 45.3311Z" fill="white"/>
<path opacity="0.22" d="M63.109 45.331C63.0474 46.0604 70.6473 47.4058 71.2418 46.9974C69.0032 45.2428 66.8186 44.0987 65.539 43.7773C64.9888 44.7512 63.148 44.8161 63.109 45.331Z" fill="#1F1F39"/>
</g>
<defs>
<clipPath id="clip0_40464_62">
<rect width="94" height="84" fill="white"/>
</clipPath>
</defs>
</svg>
